<svg id="Layer_1" data-name="Layer 1" xmlns="http://www.w3.org/2000/svg" viewBox="0 0 254.77 65.19"><defs><style>.cls-1{fill:#fff;}.cls-2{fill:#880355;}</style></defs><title>Buff Logo</title><path class="cls-1" d="M95.29,166.48a15.66,15.66,0,0,0,6.52-12.59c0-11.47-9-14.52-20.19-14.52H57.76v17a1.94,1.94,0,0,1,1.9.14l14.85,9.62a2,2,0,0,1,0,3.35l-14.85,9.62a1.94,1.94,0,0,1-1.9.14v17.86H82.11c13,0,21.51-4.49,21.51-17.4C103.62,173.46,100.7,168.08,95.29,166.48Zm-21.16-4v-9.63h5.76c3.47,0,6.66.08,6.66,4.58,0,3.37-2.36,5.05-5.62,5.05Zm7.15,21.18H74.13V173h5.21c5.2,0,9,.32,9,5.37C88.35,182.68,85.3,183.65,81.28,183.65Z" transform="translate(-56.93 -136.73)"/><path class="cls-1" d="M149.62,197.12H136.23V191c-3.61,5.77-7.15,7.38-13.11,7.38-7.91,0-13.05-5.62-13.05-17.65V155.09H124.5v22.7c0,5.78,1.74,7.62,5.21,7.62,4.16,0,5.48-3.61,5.48-10.1V155.09h14.43Z" transform="translate(-56.93 -136.73)"/><path class="cls-1" d="M178.9,155.09v9.63h-6v32.4H158.43v-32.4h-4.78v-9.63h4.85c0-14.84,5-17.25,14.23-17.25h6.17v10.51c-4.72,0-6.38,0-6,6.74Z" transform="translate(-56.93 -136.73)"/><path class="cls-1" d="M204.64,155.09v9.63h-6v32.4H184.17v-32.4h-4.78v-9.63h4.85c0-14.84,5-17.25,14.23-17.25h6.17v10.51c-4.72,0-6.38,0-6,6.74Z" transform="translate(-56.93 -136.73)"/><path class="cls-2" d="M56.93,160.6v14.46a1.49,1.49,0,0,0,2.31,1.25l11.15-7.23a1.5,1.5,0,0,0,0-2.51l-11.15-7.23A1.49,1.49,0,0,0,56.93,160.6Z" transform="translate(-56.93 -136.73)"/><path class="cls-1" d="M299.7,136.73H232.35a12,12,0,0,0-12,12v36.39a12,12,0,0,0,12,12H258.7l5.77-8.9a1.85,1.85,0,0,1,3.11,0l5.77,8.9H299.7a12,12,0,0,0,12-12V148.73A12,12,0,0,0,299.7,136.73Zm-40.79,25h-6.48V174c0,3.11.46,4.21,4.21,4.21h2.14v9.65c-17.68,1-19.82-.26-19.82-12V161.72h-4.79V154h5V143.39h13.27V154h6.48Zm30.57,26.17h-15L262.67,154h13.47l6,21.44L288,154h13Z" transform="translate(-56.93 -136.73)"/><path class="cls-2" d="M260.1,201.92H272a1.22,1.22,0,0,0,1-1.89l-5.92-9.14a1.22,1.22,0,0,0-2.05,0L259.07,200A1.23,1.23,0,0,0,260.1,201.92Z" transform="translate(-56.93 -136.73)"/></svg>